<svg id="visual" viewBox="0 0 1920 1080" width="1920" height="1080" xmlns="http://www.w3.org/2000/svg" xmlns:xlink="http://www.w3.org/1999/xlink" version="1.1"><rect x="0" y="0" width="1920" height="1080" fill="#001220"></rect><path d="M0 754L45.7 744.8C91.3 735.7 182.7 717.3 274.2 697.8C365.7 678.3 457.3 657.7 548.8 650.8C640.3 644 731.7 651 823 667.3C914.3 683.7 1005.7 709.3 1097 708.7C1188.3 708 1279.7 681 1371.2 680.3C1462.7 679.7 1554.3 705.3 1645.8 706C1737.3 706.7 1828.7 682.3 1874.3 670.2L1920 658L1920 1081L1874.3 1081C1828.7 1081 1737.3 1081 1645.8 1081C1554.3 1081 1462.7 1081 1371.2 1081C1279.7 1081 1188.3 1081 1097 1081C1005.7 1081 914.3 1081 823 1081C731.7 1081 640.3 1081 548.8 1081C457.3 1081 365.7 1081 274.2 1081C182.7 1081 91.3 1081 45.7 1081L0 1081Z" fill="#4324a6"></path><path d="M0 806L45.7 795.8C91.3 785.7 182.7 765.3 274.2 772.7C365.7 780 457.3 815 548.8 834.7C640.3 854.3 731.7 858.7 823 842.8C914.3 827 1005.7 791 1097 784.2C1188.3 777.3 1279.7 799.7 1371.2 800.3C1462.7 801 1554.3 780 1645.8 762.3C1737.3 744.7 1828.7 730.3 1874.3 723.2L1920 716L1920 1081L1874.3 1081C1828.7 1081 1737.3 1081 1645.8 1081C1554.3 1081 1462.7 1081 1371.2 1081C1279.7 1081 1188.3 1081 1097 1081C1005.7 1081 914.3 1081 823 1081C731.7 1081 640.3 1081 548.8 1081C457.3 1081 365.7 1081 274.2 1081C182.7 1081 91.3 1081 45.7 1081L0 1081Z" fill="#7a59bd"></path><path d="M0 834L45.7 837.8C91.3 841.7 182.7 849.3 274.2 848.3C365.7 847.3 457.3 837.7 548.8 835.5C640.3 833.3 731.7 838.7 823 833.5C914.3 828.3 1005.7 812.7 1097 803.2C1188.3 793.7 1279.7 790.3 1371.2 795.5C1462.7 800.7 1554.3 814.3 1645.8 823.7C1737.3 833 1828.7 838 1874.3 840.5L1920 843L1920 1081L1874.3 1081C1828.7 1081 1737.3 1081 1645.8 1081C1554.3 1081 1462.7 1081 1371.2 1081C1279.7 1081 1188.3 1081 1097 1081C1005.7 1081 914.3 1081 823 1081C731.7 1081 640.3 1081 548.8 1081C457.3 1081 365.7 1081 274.2 1081C182.7 1081 91.3 1081 45.7 1081L0 1081Z" fill="#a88ed4"></path><path d="M0 900L45.7 897.7C91.3 895.3 182.7 890.7 274.2 900.2C365.7 909.7 457.3 933.3 548.8 939.7C640.3 946 731.7 935 823 927.8C914.3 920.7 1005.7 917.3 1097 913.7C1188.3 910 1279.7 906 1371.2 900.3C1462.7 894.7 1554.3 887.3 1645.8 888.8C1737.3 890.3 1828.7 900.7 1874.3 905.8L1920 911L1920 1081L1874.3 1081C1828.7 1081 1737.3 1081 1645.8 1081C1554.3 1081 1462.7 1081 1371.2 1081C1279.7 1081 1188.3 1081 1097 1081C1005.7 1081 914.3 1081 823 1081C731.7 1081 640.3 1081 548.8 1081C457.3 1081 365.7 1081 274.2 1081C182.7 1081 91.3 1081 45.7 1081L0 1081Z" fill="#d4c5ea"></path><path d="M0 958L45.7 966.5C91.3 975 182.7 992 274.2 994.3C365.7 996.7 457.3 984.3 548.8 981.7C640.3 979 731.7 986 823 989.2C914.3 992.3 1005.7 991.7 1097 996C1188.3 1000.3 1279.7 1009.7 1371.2 1012.5C1462.7 1015.3 1554.3 1011.7 1645.8 1000.2C1737.3 988.7 1828.7 969.3 1874.3 959.7L1920 950L1920 1081L1874.3 1081C1828.7 1081 1737.3 1081 1645.8 1081C1554.3 1081 1462.7 1081 1371.2 1081C1279.7 1081 1188.3 1081 1097 1081C1005.7 1081 914.3 1081 823 1081C731.7 1081 640.3 1081 548.8 1081C457.3 1081 365.7 1081 274.2 1081C182.7 1081 91.3 1081 45.7 1081L0 1081Z" fill="#ffffff"></path></svg>